<svg width="103" height="117" viewBox="0 0 103 117" fill="none" xmlns="http://www.w3.org/2000/svg">
<ellipse cx="51.5" cy="55.5007" rx="51.5" ry="51" fill="white"/>
<path d="M33.8559 0H73.0082C78.5988 0 83.1388 4.52189 83.1388 10.0901V106.42C83.1388 111.988 78.5988 116.51 73.0082 116.51H33.8559C28.2654 116.51 23.7254 111.988 23.7254 106.42V10.0901C23.7254 4.52189 28.2654 0 33.8559 0Z" fill="#838383"/>
<path d="M33.8561 14.1053H73.0084C76.3764 14.1053 79.1098 16.8279 79.1098 20.1824V93.9031C79.1098 97.2576 76.3764 99.9801 73.0084 99.9801H33.8561C30.4882 99.9801 27.7547 97.2576 27.7547 93.9031V20.1803C27.7547 16.8258 30.4882 14.1033 33.8561 14.1033V14.1053Z" fill="#B5C0CB"/>
<path d="M59.0582 108.246C59.0582 105.152 56.539 102.643 53.4327 102.643C50.3264 102.643 47.8071 105.152 47.8071 108.246C47.8071 111.34 50.3264 113.851 53.4327 113.851C56.539 113.851 59.0582 111.342 59.0582 108.246Z" fill="#858585"/>
<path d="M58.1668 7.05354C58.1668 6.33956 57.5859 5.76099 56.8691 5.76099H49.9952C49.2784 5.76099 48.6975 6.33956 48.6975 7.05354C48.6975 7.76752 49.2804 8.34609 49.9952 8.34609H56.8691C57.5859 8.34609 58.1668 7.76547 58.1668 7.05354Z" fill="#565656"/>
</svg>
